STARTFONT 2.1
FONT misc.greek.8
SIZE 14 72 72
FONTBOUNDINGBOX 16 14 0 -3
STARTPROPERTIES 4
FONT_DESCENT 3
FONT_ASCENT 11
DEFAULT_CHAR 0
COPYRIGHT "Copyright (c) 1992 AT&T - All rights reserved."
ENDPROPERTIES
CHARS 107
STARTCHAR ch-0
ENCODING 0
SWIDTH 642 0
DWIDTH 9 0
BBX 9 14 0 -3
BITMAP
0000
0000
cc00
cc00
d600
1600
1600
3f00
2300
2300
2300
0000
0000
0000
ENDCHAR
STARTCHAR ch-2
ENCODING 2
SWIDTH 714 0
DWIDTH 10 0
BBX 10 14 0 -3
BITMAP
0000
0000
df80
d800
d800
1800
1f00
1800
1800
1800
1f80
0000
0000
0000
ENDCHAR
STARTCHAR ch-3
ENCODING 3
SWIDTH 714 0
DWIDTH 10 0
BBX 10 14 0 -3
BITMAP
0000
0000
d980
d980
d980
1980
1f80
1980
1980
1980
1980
0000
0000
0000
ENDCHAR
STARTCHAR ch-4
ENCODING 4
SWIDTH 714 0
DWIDTH 10 0
BBX 10 14 0 -3
BITMAP
0000
0000
de00
cc00
cc00
0c00
0c00
0c00
0c00
0c00
1e00
0000
0000
0000
ENDCHAR
STARTCHAR ch-6
ENCODING 6
SWIDTH 714 0
DWIDTH 10 0
BBX 10 14 0 -3
BITMAP
0000
0000
cf00
c900
d980
1980
1980
1980
1980
0900
0f00
0000
0000
0000
ENDCHAR
STARTCHAR ch-8
ENCODING 8
SWIDTH 928 0
DWIDTH 13 0
BBX 13 14 0 -3
BITMAP
0000
0000
ce60
def0
c180
0180
0180
0180
0180
0180
07e0
0000
0000
0000
ENDCHAR
STARTCHAR ch-9
ENCODING 9
SWIDTH 785 0
DWIDTH 11 0
BBX 11 14 0 -3
BITMAP
0000
0000
c780
d840
d840
1840
1840
0840
1cc0
1cc0
1cc0
0000
0000
0000
ENDCHAR
STARTCHAR ch-10
ENCODING 10
SWIDTH 642 0
DWIDTH 9 0
BBX 9 14 0 -3
BITMAP
1800
1800
db00
c300
0000
0800
1800
1800
1800
3800
3400
1800
0000
0000
ENDCHAR
STARTCHAR ch-11
ENCODING 11
SWIDTH 571 0
DWIDTH 8 0
BBX 8 14 0 -3
BITMAP
0000
0000
1800
1800
2c00
2c00
2c00
7e00
4600
4600
4600
0000
0000
0000
ENDCHAR
STARTCHAR ch-12
ENCODING 12
SWIDTH 571 0
DWIDTH 8 0
BBX 8 14 0 -3
BITMAP
0000
0000
7c00
6600
6600
6600
7c00
6600
6600
6600
7c00
0000
0000
0000
ENDCHAR
STARTCHAR ch-13
ENCODING 13
SWIDTH 642 0
DWIDTH 9 0
BBX 9 14 0 -3
BITMAP
0000
0000
7f00
3100
3100
3100
3000
3000
3000
3000
7c00
0000
0000
0000
ENDCHAR
STARTCHAR ch-14
ENCODING 14
SWIDTH 857 0
DWIDTH 12 0
BBX 12 14 0 -3
BITMAP
0000
0000
0600
0600
0b00
0b00
1180
31c0
20c0
7fe0
7fe0
0000
0000
0000
ENDCHAR
STARTCHAR ch-15
ENCODING 15
SWIDTH 571 0
DWIDTH 8 0
BBX 8 14 0 -3
BITMAP
0000
0000
7e00
6000
6000
6000
7c00
6000
6000
6000
7e00
0000
0000
0000
ENDCHAR
STARTCHAR ch-16
ENCODING 16
SWIDTH 571 0
DWIDTH 8 0
BBX 8 14 0 -3
BITMAP
0000
0000
7e00
0600
0c00
0c00
1800
3000
3000
6000
7e00
0000
0000
0000
ENDCHAR
STARTCHAR ch-17
ENCODING 17
SWIDTH 571 0
DWIDTH 8 0
BBX 8 14 0 -3
BITMAP
0000
0000
6600
6600
6600
6600
7e00
6600
6600
6600
6600
0000
0000
0000
ENDCHAR
STARTCHAR ch-18
ENCODING 18
SWIDTH 785 0
DWIDTH 11 0
BBX 11 14 0 -3
BITMAP
0000
0000
1f00
3180
60c0
64c0
64c0
60c0
60c0
3180
1f00
0000
0000
0000
ENDCHAR
STARTCHAR ch-19
ENCODING 19
SWIDTH 571 0
DWIDTH 8 0
BBX 8 14 0 -3
BITMAP
0000
0000
3c00
1800
1800
1800
1800
1800
1800
1800
3c00
0000
0000
0000
ENDCHAR
STARTCHAR ch-20
ENCODING 20
SWIDTH 571 0
DWIDTH 8 0
BBX 8 14 0 -3
BITMAP
0000
0000
6600
6400
6c00
6800
7800
6c00
6c00
6600
6600
0000
0000
0000
ENDCHAR
STARTCHAR ch-21
ENCODING 21
SWIDTH 785 0
DWIDTH 11 0
BBX 11 14 0 -3
BITMAP
0000
0000
0c00
0c00
0c00
1600
1200
1200
2300
2300
f7c0
0000
0000
0000
ENDCHAR
STARTCHAR ch-22
ENCODING 22
SWIDTH 571 0
DWIDTH 8 0
BBX 8 14 0 -3
BITMAP
0000
0000
6600
6600
6600
7e00
5a00
5a00
5a00
5a00
4200
0000
0000
0000
ENDCHAR
STARTCHAR ch-23
ENCODING 23
SWIDTH 571 0
DWIDTH 8 0
BBX 8 14 0 -3
BITMAP
0000
0000
6200
7200
7200
5a00
5a00
4e00
4e00
4600
4600
0000
0000
0000
ENDCHAR
STARTCHAR ch-24
ENCODING 24
SWIDTH 714 0
DWIDTH 10 0
BBX 10 14 0 -3
BITMAP
0000
0000
7f80
7f80
4080
3f00
3f00
0000
4080
7f80
7f80
0000
0000
0000
ENDCHAR
STARTCHAR ch-25
ENCODING 25
SWIDTH 571 0
DWIDTH 8 0
BBX 8 14 0 -3
BITMAP
0000
0000
3c00
2400
6600
6600
6600
6600
6600
2400
3c00
0000
0000
0000
ENDCHAR
STARTCHAR ch-26
ENCODING 26
SWIDTH 785 0
DWIDTH 11 0
BBX 11 14 0 -3
BITMAP
0000
0000
7fc0
3180
3180
3180
3180
3180
3180
3180
7bc0
0000
0000
0000
ENDCHAR
STARTCHAR ch-27
ENCODING 27
SWIDTH 571 0
DWIDTH 8 0
BBX 8 14 0 -3
BITMAP
0000
0000
7c00
6600
6600
6600
6400
7800
6000
6000
6000
0000
0000
0000
ENDCHAR
STARTCHAR ch-29
ENCODING 29
SWIDTH 714 0
DWIDTH 10 0
BBX 10 14 0 -3
BITMAP
0000
0000
7f80
7180
3880
1c80
0e00
0c80
1880
3180
7f80
0000
0000
0000
ENDCHAR
STARTCHAR ch-30
ENCODING 30
SWIDTH 571 0
DWIDTH 8 0
BBX 8 14 0 -3
BITMAP
0000
0000
7e00
1800
1800
1800
1800
1800
1800
1800
1800
0000
0000
0000
ENDCHAR
STARTCHAR ch-31
ENCODING 31
SWIDTH 785 0
DWIDTH 11 0
BBX 11 14 0 -3
BITMAP
0000
0000
3980
7bc0
0600
0600
0600
0600
0600
0600
1f80
0000
0000
0000
ENDCHAR
STARTCHAR ch-32
ENCODING 32
SWIDTH 714 0
DWIDTH 10 0
BBX 10 14 0 -3
BITMAP
0000
0000
3f00
0c00
3f00
6d80
6d80
6d80
3f00
0c00
3f00
0000
0000
0000
ENDCHAR
STARTCHAR ch-33
ENCODING 33
SWIDTH 571 0
DWIDTH 8 0
BBX 8 14 0 -3
BITMAP
0000
0000
6600
6200
3600
3400
1800
2c00
6c00
4600
6600
0000
0000
0000
ENDCHAR
STARTCHAR ch-34
ENCODING 34
SWIDTH 857 0
DWIDTH 12 0
BBX 12 14 0 -3
BITMAP
0000
0000
1f80
0600
6660
6660
6660
37c0
1f80
0600
1f80
0000
0000
0000
ENDCHAR
STARTCHAR ch-35
ENCODING 35
SWIDTH 714 0
DWIDTH 10 0
BBX 10 14 0 -3
BITMAP
0000
0000
1e00
6180
6180
6180
6180
2100
7380
7380
7380
0000
0000
0000
ENDCHAR
STARTCHAR ch-36
ENCODING 36
SWIDTH 571 0
DWIDTH 8 0
BBX 8 14 0 -3
BITMAP
6600
6600
0000
3c00
1800
1800
1800
1800
1800
1800
3c00
0000
0000
0000
ENDCHAR
STARTCHAR ch-37
ENCODING 37
SWIDTH 785 0
DWIDTH 11 0
BBX 11 14 0 -3
BITMAP
1980
1980
0000
3980
7bc0
0600
0600
0600
0600
0600
1f80
0000
0000
0000
ENDCHAR
STARTCHAR ch-38
ENCODING 38
SWIDTH 857 0
DWIDTH 12 0
BBX 12 14 0 -3
BITMAP
0600
0600
0600
0000
1e60
31c0
6180
6180
6180
6380
3ce0
0000
0000
0000
ENDCHAR
STARTCHAR ch-39
ENCODING 39
SWIDTH 571 0
DWIDTH 8 0
BBX 8 14 0 -3
BITMAP
0c00
0c00
0c00
0000
1e00
3000
6000
7c00
6000
6200
3c00
0000
0000
0000
ENDCHAR
STARTCHAR ch-40
ENCODING 40
SWIDTH 714 0
DWIDTH 10 0
BBX 10 14 0 -3
BITMAP
0600
0600
0600
0000
3700
7980
7180
3180
3180
6300
6300
0300
0300
0200
ENDCHAR
STARTCHAR ch-41
ENCODING 41
SWIDTH 428 0
DWIDTH 6 0
BBX 6 14 0 -3
BITMAP
3000
3000
3000
0000
1000
3000
3000
3000
7000
6800
3000
0000
0000
0000
ENDCHAR
STARTCHAR ch-42
ENCODING 42
SWIDTH 714 0
DWIDTH 10 0
BBX 10 14 0 -3
BITMAP
0c00
6d80
6d80
0000
3100
5980
7080
3080
3100
3300
1c00
0000
0000
0000
ENDCHAR
STARTCHAR ch-43
ENCODING 43
SWIDTH 857 0
DWIDTH 12 0
BBX 12 14 0 -3
BITMAP
0000
0000
0000
0000
1e60
31c0
6180
6180
6180
6380
3ce0
0000
0000
0000
ENDCHAR
STARTCHAR ch-44
ENCODING 44
SWIDTH 714 0
DWIDTH 10 0
BBX 10 14 0 -3
BITMAP
0700
0980
1180
1180
1f00
2f80
2180
2180
2100
6300
5c00
4000
4000
8000
ENDCHAR
STARTCHAR ch-45
ENCODING 45
SWIDTH 785 0
DWIDTH 11 0
BBX 11 14 0 -3
BITMAP
0000
0000
0000
0000
1c40
3c80
4680
0300
0300
0300
0200
0200
0200
0400
ENDCHAR
STARTCHAR ch-46
ENCODING 46
SWIDTH 642 0
DWIDTH 9 0
BBX 9 14 0 -3
BITMAP
0700
0800
1800
1c00
1e00
3600
6200
6200
6600
6400
3800
0000
0000
0000
ENDCHAR
STARTCHAR ch-47
ENCODING 47
SWIDTH 571 0
DWIDTH 8 0
BBX 8 14 0 -3
BITMAP
0000
0000
0000
0000
1e00
3000
6000
7c00
6000
6200
3c00
0000
0000
0000
ENDCHAR
STARTCHAR ch-48
ENCODING 48
SWIDTH 571 0
DWIDTH 8 0
BBX 8 14 0 -3
BITMAP
0400
0e00
0e00
1000
3000
2000
6000
6000
6000
6000
7800
3c00
0400
1c00
ENDCHAR
STARTCHAR ch-49
ENCODING 49
SWIDTH 714 0
DWIDTH 10 0
BBX 10 14 0 -3
BITMAP
0000
0000
0000
0000
3700
7980
7180
3180
3180
6300
6300
0300
0300
0200
ENDCHAR
STARTCHAR ch-50
ENCODING 50
SWIDTH 714 0
DWIDTH 10 0
BBX 10 14 0 -3
BITMAP
0600
1900
1180
3180
3180
7f00
6300
6300
6600
6400
3800
0000
0000
0000
ENDCHAR
STARTCHAR ch-51
ENCODING 51
SWIDTH 428 0
DWIDTH 6 0
BBX 6 14 0 -3
BITMAP
0000
0000
0000
0000
1000
3000
3000
3000
7000
6800
3000
0000
0000
0000
ENDCHAR
STARTCHAR ch-52
ENCODING 52
SWIDTH 714 0
DWIDTH 10 0
BBX 10 14 0 -3
BITMAP
0000
0000
0000
0000
1180
3280
3c00
3e00
3300
6380
6180
0000
0000
0000
ENDCHAR
STARTCHAR ch-53
ENCODING 53
SWIDTH 714 0
DWIDTH 10 0
BBX 10 14 0 -3
BITMAP
1800
0c00
0c00
0c00
0600
0600
0e00
1b00
3300
6300
4180
0000
0000
0000
ENDCHAR
STARTCHAR ch-54
ENCODING 54
SWIDTH 714 0
DWIDTH 10 0
BBX 10 14 0 -3
BITMAP
0000
0000
0000
0000
1080
3180
3180
3180
3180
7380
7d80
6000
6000
4000
ENDCHAR
STARTCHAR ch-55
ENCODING 55
SWIDTH 714 0
DWIDTH 10 0
BBX 10 14 0 -3
BITMAP
0000
0000
0000
0000
3880
3180
3180
3300
3600
6c00
7000
0000
0000
0000
ENDCHAR
STARTCHAR ch-56
ENCODING 56
SWIDTH 642 0
DWIDTH 9 0
BBX 9 14 0 -3
BITMAP
0200
0700
0f00
1800
1800
1e00
1e00
3000
3000
7000
3800
1e00
0600
0e00
ENDCHAR
STARTCHAR ch-57
ENCODING 57
SWIDTH 714 0
DWIDTH 10 0
BBX 10 14 0 -3
BITMAP
0000
0000
0000
0000
1f00
3180
6180
6180
6100
6300
3c00
0000
0000
0000
ENDCHAR
STARTCHAR ch-58
ENCODING 58
SWIDTH 785 0
DWIDTH 11 0
BBX 11 14 0 -3
BITMAP
0000
0000
0000
0000
1fc0
3fc0
4a00
1a00
1a00
3300
3300
0000
0000
0000
ENDCHAR
STARTCHAR ch-59
ENCODING 59
SWIDTH 714 0
DWIDTH 10 0
BBX 10 14 0 -3
BITMAP
0000
0000
0000
0000
0f00
1980
3180
3180
3100
6300
7e00
6000
6000
4000
ENDCHAR
STARTCHAR ch-60
ENCODING 60
SWIDTH 571 0
DWIDTH 8 0
BBX 8 14 0 -3
BITMAP
0000
0000
0000
0000
1e00
3600
6200
6000
6000
6000
3e00
0600
1e00
0000
ENDCHAR
STARTCHAR ch-61
ENCODING 61
SWIDTH 785 0
DWIDTH 11 0
BBX 11 14 0 -3
BITMAP
0000
0000
0000
0000
1fc0
3fc0
6300
6300
6300
6600
3c00
0000
0000
0000
ENDCHAR
STARTCHAR ch-62
ENCODING 62
SWIDTH 714 0
DWIDTH 10 0
BBX 10 14 0 -3
BITMAP
0000
0000
0000
0000
1f80
3f80
4c00
0c00
0800
1800
1800
0000
0000
0000
ENDCHAR
STARTCHAR ch-63
ENCODING 63
SWIDTH 714 0
DWIDTH 10 0
BBX 10 14 0 -3
BITMAP
0000
0000
0000
0000
3100
5980
7080
3080
3100
3300
1c00
0000
0000
0000
ENDCHAR
STARTCHAR ch-64
ENCODING 64
SWIDTH 857 0
DWIDTH 12 0
BBX 12 14 0 -3
BITMAP
0100
0100
0100
0200
0f80
3240
6260
6460
64c0
6580
1f00
0800
0800
0800
ENDCHAR
STARTCHAR ch-65
ENCODING 65
SWIDTH 785 0
DWIDTH 11 0
BBX 11 14 0 -3
BITMAP
0000
0000
0000
0000
3040
1880
0d00
0e00
0c00
0600
0e00
1600
2300
4180
ENDCHAR
STARTCHAR ch-66
ENCODING 66
SWIDTH 857 0
DWIDTH 12 0
BBX 12 14 0 -3
BITMAP
0080
0100
0100
0100
3140
5a60
7220
3220
3240
3480
1f00
0400
0400
0800
ENDCHAR
STARTCHAR ch-67
ENCODING 67
SWIDTH 857 0
DWIDTH 12 0
BBX 12 14 0 -3
BITMAP
0000
0000
0000
0000
2040
2060
4620
4620
4440
7fc0
3b80
0000
0000
0000
ENDCHAR
STARTCHAR ch-68
ENCODING 68
SWIDTH 500 0
DWIDTH 7 0
BBX 7 14 0 -3
BITMAP
0000
6600
6600
0000
1000
3000
3000
3000
7000
6800
3000
0000
0000
0000
ENDCHAR
STARTCHAR ch-69
ENCODING 69
SWIDTH 714 0
DWIDTH 10 0
BBX 10 14 0 -3
BITMAP
0000
1980
1980
0000
3100
5980
7080
3080
3100
3300
1c00
0000
0000
0000
ENDCHAR
STARTCHAR ch-70
ENCODING 70
SWIDTH 714 0
DWIDTH 10 0
BBX 10 14 0 -3
BITMAP
0600
0600
0600
0000
1f00
3180
6180
6180
6100
6300
3c00
0000
0000
0000
ENDCHAR
STARTCHAR ch-71
ENCODING 71
SWIDTH 714 0
DWIDTH 10 0
BBX 10 14 0 -3
BITMAP
0600
0600
0600
0000
3100
5980
7080
3080
3100
3300
1c00
0000
0000
0000
ENDCHAR
STARTCHAR ch-72
ENCODING 72
SWIDTH 857 0
DWIDTH 12 0
BBX 12 14 0 -3
BITMAP
0300
0300
0300
0000
2040
2060
4620
4620
4440
7fc0
3b80
0000
0000
0000
ENDCHAR
STARTCHAR ch-74
ENCODING 74
SWIDTH 571 0
DWIDTH 8 0
BBX 8 14 0 -3
BITMAP
1c00
3400
3400
2400
3800
7c00
6600
6200
6600
6400
3800
0000
0000
0000
ENDCHAR
STARTCHAR ch-75
ENCODING 75
SWIDTH 785 0
DWIDTH 11 0
BBX 11 14 0 -3
BITMAP
0700
0880
08c0
08c0
34c0
7380
7180
3180
3300
3200
3c00
0000
0000
0000
ENDCHAR
STARTCHAR ch-76
ENCODING 76
SWIDTH 714 0
DWIDTH 10 0
BBX 10 14 0 -3
BITMAP
0000
0000
7300
1780
0c00
0c00
0c00
0c00
0c00
0c00
3f00
0000
0000
0000
ENDCHAR
STARTCHAR ch-77
ENCODING 77
SWIDTH 785 0
DWIDTH 11 0
BBX 11 14 0 -3
BITMAP
0000
0000
dcc0
c5c0
c300
0300
0300
0300
0300
0300
0fc0
0000
0000
0000
ENDCHAR
STARTCHAR ch-78
ENCODING 78
SWIDTH 714 0
DWIDTH 10 0
BBX 10 14 0 -3
BITMAP
3300
3300
0000
7300
1780
0c00
0c00
0c00
0c00
0c00
3f00
0000
0000
0000
ENDCHAR
STARTCHAR ch-79
ENCODING 79
SWIDTH 857 0
DWIDTH 12 0
BBX 12 14 0 -3
BITMAP
0000
0000
0000
0000
20c0
21e0
4220
4020
4440
7f80
1f00
0c00
0c00
0800
ENDCHAR
STARTCHAR ch-80
ENCODING 80
SWIDTH 1071 0
DWIDTH 15 0
BBX 15 14 0 -3
BITMAP
0000
0000
0000
0000
1ffc
3ffc
5108
1108
1310
1ff0
1ce0
0000
0000
0000
ENDCHAR
STARTCHAR ch-81
ENCODING 81
SWIDTH 285 0
DWIDTH 4 0
BBX 4 14 0 -3
BITMAP
0000
0000
0000
0000
0000
6000
6000
0000
0000
6000
6000
2000
2000
4000
ENDCHAR
STARTCHAR ch-82
ENCODING 82
SWIDTH 357 0
DWIDTH 5 0
BBX 5 14 0 -3
BITMAP
0000
0000
3000
3000
6000
6000
0000
0000
0000
0000
0000
0000
0000
0000
ENDCHAR
STARTCHAR ch-83
ENCODING 83
SWIDTH 357 0
DWIDTH 5 0
BBX 5 14 0 -3
BITMAP
0000
0000
0000
0000
0000
0000
0000
0000
0000
3000
3000
6000
6000
0000
ENDCHAR
STARTCHAR ch-84
ENCODING 84
SWIDTH 928 0
DWIDTH 13 0
BBX 13 14 0 -3
BITMAP
0000
07f0
0c10
1010
3000
6000
6000
6000
6000
3000
1fc0
00c0
00c0
03c0
ENDCHAR
STARTCHAR ch-85
ENCODING 85
SWIDTH 571 0
DWIDTH 8 0
BBX 8 14 0 -3
BITMAP
0000
0000
0000
0000
1e00
3e00
6000
6000
6000
6000
3e00
0600
1e00
0000
ENDCHAR
STARTCHAR ch-86
ENCODING 86
SWIDTH 571 0
DWIDTH 8 0
BBX 8 14 0 -3
BITMAP
0000
0000
7e00
6000
6000
6000
7c00
6000
6000
6000
6000
0000
0000
0000
ENDCHAR
STARTCHAR ch-87
ENCODING 87
SWIDTH 642 0
DWIDTH 9 0
BBX 9 14 0 -3
BITMAP
0600
0e00
0c00
0c00
3f00
1800
1800
1800
1800
1800
3000
3000
7000
6000
ENDCHAR
STARTCHAR ch-88
ENCODING 88
SWIDTH 571 0
DWIDTH 8 0
BBX 8 14 0 -3
BITMAP
0000
0000
3c00
2400
6600
6600
6600
6600
6600
2400
3c00
1800
3c00
3c00
ENDCHAR
STARTCHAR ch-89
ENCODING 89
SWIDTH 714 0
DWIDTH 10 0
BBX 10 14 0 -3
BITMAP
0000
0000
0000
0000
3c00
6600
6600
6600
6600
6600
3c00
1800
3c00
3c00
ENDCHAR
STARTCHAR ch-90
ENCODING 90
SWIDTH 785 0
DWIDTH 11 0
BBX 11 14 0 -3
BITMAP
0000
1f00
3f80
7380
64c0
09c0
12c0
24c0
08c0
10c0
3980
0300
0000
0000
ENDCHAR
STARTCHAR ch-91
ENCODING 91
SWIDTH 571 0
DWIDTH 8 0
BBX 8 14 0 -3
BITMAP
0000
0000
0000
3c00
5c00
1600
2600
4e00
1600
2600
0600
0c00
0000
0000
ENDCHAR
STARTCHAR ch-92
ENCODING 92
SWIDTH 857 0
DWIDTH 12 0
BBX 12 14 0 -3
BITMAP
0000
0000
6660
6660
6660
6660
6660
6660
6660
7fe0
6660
0060
7fe0
6000
ENDCHAR
STARTCHAR ch-93
ENCODING 93
SWIDTH 714 0
DWIDTH 10 0
BBX 10 14 0 -3
BITMAP
0000
0000
0000
0000
0000
6b00
6b00
6b00
6b00
7f00
6b80
0300
7f00
6000
ENDCHAR
STARTCHAR ch-94
ENCODING 94
SWIDTH 714 0
DWIDTH 10 0
BBX 10 14 0 -3
BITMAP
0000
0000
6780
6300
4300
7f00
0700
0300
0300
0300
0780
0000
0000
0000
ENDCHAR
STARTCHAR ch-95
ENCODING 95
SWIDTH 714 0
DWIDTH 10 0
BBX 10 14 0 -3
BITMAP
0000
0000
0000
0000
4700
6600
3e00
0300
0300
0300
0780
0000
0000
0000
ENDCHAR
STARTCHAR ch-96
ENCODING 96
SWIDTH 714 0
DWIDTH 10 0
BBX 10 14 0 -3
BITMAP
0000
0000
7800
3000
3380
3f80
3980
3180
3180
3180
7880
0080
1f80
0f00
ENDCHAR
STARTCHAR ch-97
ENCODING 97
SWIDTH 714 0
DWIDTH 10 0
BBX 10 14 0 -3
BITMAP
0000
0000
0000
0180
7700
6c00
7600
0600
0600
3600
6c00
4000
6000
0000
ENDCHAR
STARTCHAR ch-98
ENCODING 98
SWIDTH 571 0
DWIDTH 8 0
BBX 8 14 0 -3
BITMAP
0000
0000
7c00
4600
6600
0e00
3c00
7000
6600
6200
3e00
0000
0000
0000
ENDCHAR
STARTCHAR ch-99
ENCODING 99
SWIDTH 571 0
DWIDTH 8 0
BBX 8 14 0 -3
BITMAP
0000
0000
7c00
6600
6600
3e00
3000
7000
6000
6000
3e00
0000
0000
0000
ENDCHAR
STARTCHAR ch-100
ENCODING 100
SWIDTH 857 0
DWIDTH 12 0
BBX 12 14 0 -3
BITMAP
0000
0000
78e0
68a0
0d80
0d00
0600
0b00
1b00
1180
1f80
0000
0000
0000
ENDCHAR
STARTCHAR ch-101
ENCODING 101
SWIDTH 785 0
DWIDTH 11 0
BBX 11 14 0 -3
BITMAP
0000
0000
0000
0000
71c0
5140
1a00
0c00
1600
2300
3f00
0000
0000
0000
ENDCHAR
STARTCHAR ch-102
ENCODING 102
SWIDTH 571 0
DWIDTH 8 0
BBX 8 14 0 -3
BITMAP
0c00
3c00
2000
7c00
6400
6600
6600
6600
6600
2400
3c00
0000
0000
0000
ENDCHAR
STARTCHAR ch-103
ENCODING 103
SWIDTH 571 0
DWIDTH 8 0
BBX 8 14 0 -3
BITMAP
0000
0000
0000
0e00
3c00
6000
7e00
6600
6600
6600
3c00
0000
0000
0000
ENDCHAR
STARTCHAR ch-104
ENCODING 104
SWIDTH 714 0
DWIDTH 10 0
BBX 10 14 0 -3
BITMAP
0000
1e00
0c00
7f80
4c80
0c00
0c00
0c00
0c00
0c00
1e00
0000
0000
0000
ENDCHAR
STARTCHAR ch-105
ENCODING 105
SWIDTH 571 0
DWIDTH 8 0
BBX 8 14 0 -3
BITMAP
0000
0000
2000
3000
1000
7e00
5a00
1800
1800
1800
0c00
1800
0000
0000
ENDCHAR
STARTCHAR ch-106
ENCODING 106
SWIDTH 714 0
DWIDTH 10 0
BBX 10 14 0 -3
BITMAP
0000
0000
0000
0000
0000
7080
1c80
0d80
3f80
2300
2100
0180
0000
0000
ENDCHAR
STARTCHAR ch-107
ENCODING 107
SWIDTH 714 0
DWIDTH 10 0
BBX 10 14 0 -3
BITMAP
0000
0000
0000
0000
0f00
1980
3180
3180
3100
6300
7e00
6000
6000
7e00
ENDCHAR
STARTCHAR ch-108
ENCODING 108
SWIDTH 571 0
DWIDTH 8 0
BBX 8 14 0 -3
BITMAP
0000
0000
0000
0000
0000
1e00
3000
6000
6000
6000
6000
3e00
0000
0000
ENDCHAR
STARTCHAR ch-109
ENCODING 109
SWIDTH 285 0
DWIDTH 4 0
BBX 4 14 0 -3
BITMAP
6000
6000
6000
0000
0000
0000
0000
0000
0000
0000
0000
0000
0000
0000
ENDCHAR
STARTCHAR ch-110
ENCODING 110
SWIDTH 642 0
DWIDTH 9 0
BBX 9 14 0 -3
BITMAP
1800
1800
db00
c300
0000
0000
0000
0000
0000
0000
0000
0000
0000
0000
ENDCHAR
STARTCHAR ch-111
ENCODING 111
SWIDTH 428 0
DWIDTH 6 0
BBX 6 14 0 -3
BITMAP
0000
0000
0000
0000
0000
0000
0000
0000
0000
6000
6000
6000
7800
0000
ENDCHAR
ENDFONT
